<svg xmlns="http://www.w3.org/2000/svg" viewBox="0 0 100 100" width="200" height="200">
  <rect width="100" height="100" rx="50" fill="#3a0ca3"/>
  <polygon points="50,2 28,38 72,38" fill="#1a0030"/>
  <rect x="18" y="36" width="64" height="10" rx="5" fill="#2d0050"/>
  <ellipse cx="50" cy="62" rx="28" ry="30" fill="#c8e6c9"/>
  <ellipse cx="37" cy="56" rx="7" ry="8" fill="#6a0dad"/>
  <ellipse cx="63" cy="56" rx="7" ry="8" fill="#6a0dad"/>
  <ellipse cx="37" cy="56" rx="4" ry="4" fill="#111"/>
  <ellipse cx="63" cy="56" rx="4" ry="4" fill="#111"/>
  <polygon points="50,10 52,16 58,16 53,20 55,26 50,22 45,26 47,20 42,16 48,16" fill="#ffd700" opacity="0.9"/>
  <path d="M 36 76 Q 50 86 64 76" stroke="#4a7c59" stroke-width="2.5" fill="none" stroke-linecap="round"/>
</svg>